<?xml version="1.0" encoding="utf-8"?>
<!-- Generator: Adobe Illustrator 21.1.0, SVG Export Plug-In . SVG Version: 6.00 Build 0)  -->
<svg version="1.1" id="Layer_1" xmlns="http://www.w3.org/2000/svg" xmlns:xlink="http://www.w3.org/1999/xlink" x="0px" y="0px"
	 viewBox="0 0 40 40" style="enable-background:new 0 0 40 40;" xml:space="preserve">
<style type="text/css">
	.st0{fill-rule:evenodd;clip-rule:evenodd;fill:#E01919;}
</style>
<g>
	<g>
		<path class="st0" d="M20,0c2.8,0,5.6,0,8.4,0.1c2.2,0.1,4.4,0.5,6.3,1.7c2.6,1.6,4.2,4,4.8,7c0.4,1.8,0.4,3.7,0.4,5.6
			c0,4,0,7.9,0,11.9c0,2.1-0.1,4.2-0.8,6.3c-1.3,3.8-4.1,6.1-8,7C29.3,40,27.4,40,25.6,40c-4,0-7.9,0-11.9,0c-2.1,0-4.2-0.1-6.3-0.8
			c-3.8-1.3-6.1-4.1-7-8C0,29.3,0,27.4,0,25.6c0-4,0-7.9,0-11.9c0-2.1,0.1-4.2,0.8-6.3c1.3-3.8,4.1-6.1,8-7c1.8-0.4,3.7-0.4,5.5-0.4
			C16.3,0,18.1,0,20,0z M3.6,19.7c0,0.4,0,0.7,0,1.1c0,3-0.1,6,0.3,8.9C4.2,33,6.2,35.2,9.5,36c1.8,0.4,3.6,0.4,5.4,0.4
			c3.4,0,6.8,0,10.1,0c1.7,0,3.4,0,5.1-0.3c3-0.6,5-2.2,5.8-5.3c0.4-1.6,0.4-3.2,0.4-4.8c0-2.8,0.1-5.5,0-8.3c0-2.5,0-4.9-0.3-7.4
			C35.8,7,33.7,4.8,30.5,4c-1.8-0.4-3.6-0.4-5.4-0.4c-3.4,0-6.7,0-10.1,0c-1.5,0-3,0-4.5,0.2C8.6,4.1,6.9,4.8,5.6,6.2
			c-1.3,1.4-1.7,3.2-1.9,5C3.6,14,3.6,16.8,3.6,19.7z"/>
		<path class="st0" d="M30.3,20c0,5.7-4.6,10.3-10.3,10.3c-5.7,0-10.3-4.6-10.3-10.4c0-5.6,4.7-10.2,10.4-10.2
			C25.7,9.8,30.3,14.3,30.3,20z M20,13.3c-3.7,0-6.7,3-6.7,6.6c0,3.6,3,6.7,6.6,6.7c3.6,0,6.7-3,6.7-6.6
			C26.7,16.4,23.7,13.4,20,13.3z"/>
		<path class="st0" d="M33.1,9.3c0,1.3-1.1,2.4-2.4,2.4c-1.3,0-2.4-1.1-2.4-2.4c0-1.3,1.1-2.4,2.4-2.4C32,6.9,33.1,8,33.1,9.3z"/>
	</g>
</g>
</svg>
