<?xml version="1.0" encoding="utf-8"?>
<!-- Generator: Adobe Illustrator 21.1.0, SVG Export Plug-In . SVG Version: 6.00 Build 0)  -->
<svg version="1.1" id="Layer_1" xmlns="http://www.w3.org/2000/svg" xmlns:xlink="http://www.w3.org/1999/xlink" x="0px" y="0px"
	 viewBox="0 0 40 40" style="enable-background:new 0 0 40 40;" xml:space="preserve">
<style type="text/css">
	.st0{fill:#E01919;}
</style>
<path class="st0" d="M40,14.4c0-1.9,0-3.7-0.4-5.6c-0.6-3-2.2-5.4-4.8-7c-1.9-1.2-4.1-1.6-6.3-1.7C25.6,0,22.8,0,20,0
	c-1.9,0-3.7,0-5.6,0c-1.9,0-3.7,0-5.5,0.4c-3.9,0.9-6.7,3.1-8,7c-0.7,2-0.8,4.2-0.8,6.3c0,4,0,7.9,0,11.9c0,1.9,0,3.7,0.4,5.6
	c0.9,3.9,3.1,6.7,7,8c2,0.7,4.2,0.8,6.3,0.8c4,0,7.9,0,11.9,0c1.9,0,3.7,0,5.6-0.4c3.9-0.9,6.7-3.1,8-7c0.7-2,0.8-4.2,0.8-6.3
	C40,22.4,40,18.4,40,14.4z M36.1,10.2c0,0.1,0,0.1,0,0.2c0.3,2.4,0.2,4.9,0.3,7.4c0,2.8,0,5.5,0,8.3c0,1.2,0,2.3-0.2,3.5
	c-1-1.4-2.3-3.1-3.8-4.9c-1.4-1.7-3.1-3.4-4.8-4.8c0.4-0.4,0.9-0.7,1.3-1.1c2.5-2.3,4.7-5.1,6.4-7.4C35.6,10.9,35.8,10.5,36.1,10.2z
	 M5.6,6.2c1.3-1.4,2.9-2.1,4.8-2.3c1.5-0.2,3-0.2,4.5-0.2c3.4,0,6.8,0,10.1,0c1.8,0,3.6,0,5.4,0.4c1.7,0.4,3,1.2,4,2.3
	c0,0.1-0.1,0.1-0.1,0.2c-0.9,1.4-2.8,4.1-5.1,6.7c-1.5,1.8-3.2,3.5-4.9,4.7c-0.8,0.6-1.6,1.1-2.4,1.4c-0.7,0.3-1.4,0.5-2,0.5H20
	c-0.6,0-1.3-0.2-2-0.5c-1.4-0.6-2.9-1.7-4.4-3.1c-2.3-2.1-4.4-4.7-5.9-6.9c-0.8-1.1-1.4-2-1.8-2.6c0,0,0-0.1-0.1-0.1
	c0-0.1-0.1-0.1-0.1-0.2C5.6,6.3,5.6,6.2,5.6,6.2z M3.9,29.8c0-0.1,0-0.1,0-0.2c-0.3-3-0.2-6-0.3-8.9c0-0.4,0-0.7,0-1.1
	c0-2.8,0-5.6,0.2-8.5c0-0.3,0.1-0.7,0.1-1c1,1.4,2.3,3.2,3.9,5c1.4,1.7,3.1,3.4,4.8,4.8c-0.4,0.4-0.9,0.7-1.3,1.1
	c-2.5,2.3-4.7,5.1-6.4,7.4C4.5,28.9,4.2,29.4,3.9,29.8z M30.1,36c-1.7,0.3-3.4,0.3-5.1,0.3c-3.4,0-6.8,0-10.1,0
	c-1.8,0-3.7,0-5.4-0.4c-1.7-0.4-3-1.2-4-2.3c0.8-1.2,2.8-4.2,5.3-7.1c1.5-1.7,3.1-3.3,4.7-4.6c0.3,0.2,0.6,0.3,0.9,0.5
	c1.1,0.5,2.3,0.8,3.5,0.8H20c1.2,0,2.4-0.3,3.5-0.8c0.4-0.2,0.7-0.3,1.1-0.5c0.7,0.5,1.4,1.1,2,1.7c2.2,2.1,4.4,4.7,5.9,6.9
	c0.8,1.1,1.4,2,1.8,2.6c0.1,0.1,0.2,0.2,0.2,0.3C33.6,34.9,32.1,35.7,30.1,36z"/>
</svg>
